<?xml version="1.0" encoding="UTF-8" standalone="no"?><!DOCTYPE svg PUBLIC "-//W3C//DTD SVG 1.1//EN" "http://www.w3.org/Graphics/SVG/1.1/DTD/svg11.dtd"><svg width="100%" height="100%" viewBox="0 0 8334 1075" version="1.1" xmlns="http://www.w3.org/2000/svg" xmlns:xlink="http://www.w3.org/1999/xlink" xml:space="preserve" xmlns:serif="http://www.serif.com/" style="fill-rule:evenodd;clip-rule:evenodd;stroke-linejoin:round;stroke-miterlimit:2;"><rect id="BML-Logo_White_Full_2000x257" serif:id="BML Logo_White_Full_2000x257" x="0" y="3.083" width="8333.33" height="1070.83" style="fill:none;"/><g><path d="M1428,291.718c31.936,-0 58.413,2.507 79.407,7.506c20.994,5.011 37.43,12.75 49.292,23.208c11.857,10.47 20.19,23.897 24.989,40.282c4.784,16.385 7.18,36.176 7.18,59.39c-0,16.839 -1.48,31.286 -4.444,43.355c-2.969,12.051 -7.645,22.298 -14.038,30.714c-6.39,8.423 -14.597,15.242 -24.639,20.48c-10.049,5.232 -21.91,9.438 -35.604,12.629c31.486,5.009 54.318,16.273 68.466,33.795c14.138,17.516 21.212,44.03 21.212,79.525c-0,27.309 -2.281,50.172 -6.841,68.61c-4.567,18.431 -13.461,33.107 -26.698,44.031c-13.234,10.92 -31.605,18.659 -55.107,23.21c-23.51,4.549 -53.976,6.829 -91.392,6.829l-218.378,-0l-0,-493.564l226.595,-0Zm10.951,205.483c10.953,-0 20.192,-0.795 27.732,-2.392c7.518,-1.591 13.687,-4.893 18.469,-9.898c4.799,-5.011 8.334,-12.173 10.621,-21.511c2.28,-9.321 3.423,-21.727 3.423,-37.202c-0,-12.29 -1.37,-22.415 -4.112,-30.377c-2.735,-7.967 -7.301,-14.109 -13.688,-18.427c-6.391,-4.327 -14.946,-7.289 -25.672,-8.876c-10.731,-1.594 -24.074,-2.398 -40.042,-2.398l-123.218,-0l-0,131.081l146.487,-0Zm-8.898,212.306c16.888,0 30.47,-0.804 40.73,-2.389c10.27,-1.594 18.143,-4.89 23.619,-9.899c5.477,-5.01 9.122,-12.407 10.952,-22.194c1.82,-9.781 2.746,-22.864 2.746,-39.243c-0,-12.75 -1.153,-23.447 -3.427,-32.086c-2.281,-8.65 -6.399,-15.708 -12.324,-21.167c-5.936,-5.459 -14.032,-9.438 -24.308,-11.946c-10.258,-2.503 -23.386,-3.756 -39.364,-3.756l-136.213,0l-0,142.68l137.589,0Zm521.629,-417.789l162.239,493.564l-97.203,-0l-35.598,-108.542l-206.736,-0l-35.594,108.542l-97.211,-0l163.61,-493.564l146.493,-0Zm8.904,315.389l-75.297,-245.759l-13.698,-0l-76.667,245.759l165.662,0Zm217.008,-315.389l139.646,-0l91.049,172.713c14.148,26.849 26.92,50.967 38.339,72.357c11.413,21.4 22.01,41.535 31.832,60.421c9.802,18.883 19.395,37.203 28.745,54.952c9.355,17.75 18.832,36.409 28.413,55.976c0,-15.018 -0.233,-32.423 -0.683,-52.219c-0.46,-19.797 -0.804,-40.621 -1.031,-62.465c-0.233,-21.844 -0.455,-44.142 -0.688,-66.902c-0.229,-22.76 -0.344,-44.371 -0.344,-64.854l-0,-169.979l90.366,-0l0,493.564l-137.595,-0l-86.943,-158.378c-13.681,-25.029 -26.471,-48.814 -38.332,-71.341c-11.858,-22.525 -23.271,-44.148 -34.222,-64.855c-10.959,-20.7 -21.457,-40.957 -31.498,-60.753c-10.037,-19.803 -19.853,-39.705 -29.434,-59.734c-0,15.928 0.227,34.588 0.681,55.977c0.456,21.388 0.795,43.238 1.037,65.538c0.229,22.304 0.451,44.03 0.678,65.199c0.233,21.155 0.344,39.932 0.344,56.309l0,172.038l-90.36,-0l-0,-493.564Zm553.803,-0l93.103,-0l-0,200.018l31.485,0l164.98,-200.018l112.273,-0l-200.586,235.522l223.178,258.042l-117.742,-0l-183.461,-216.401l-30.127,-0l-0,216.401l-93.103,-0l-0,-493.564Zm907.046,73.725c-27.387,-0 -49.407,1.366 -66.07,4.094c-16.651,2.731 -29.311,8.307 -37.984,16.73c-8.683,8.416 -14.381,20.479 -17.121,36.175c-2.736,15.708 -4.106,36.524 -4.106,62.469l-0,107.178c-0,25.482 1.37,46.079 4.106,61.781c2.74,15.696 8.565,27.88 17.46,36.518c8.9,8.652 21.562,14.338 37.989,17.068c16.434,2.735 38.339,4.095 65.726,4.095c27.375,-0 49.397,-1.36 66.06,-4.095c16.649,-2.73 29.323,-8.301 37.994,-16.723c8.667,-8.417 14.377,-20.48 17.111,-36.188c2.736,-15.695 4.101,-36.518 4.101,-62.456l-0,-107.178c-0,-25.489 -1.365,-46.08 -4.101,-61.782c-2.734,-15.707 -8.555,-27.763 -17.459,-36.185c-8.9,-8.416 -21.562,-14.11 -37.99,-17.068c-16.434,-2.952 -38.341,-4.433 -65.716,-4.433Zm-0,-79.186c42.445,-0 77.577,3.18 105.414,9.555c27.842,6.375 50.206,16.955 67.084,31.746c16.89,14.788 28.757,34.358 35.604,58.709c6.841,24.345 10.264,54.269 10.264,89.767l0,124.931c0,34.59 -3.538,63.941 -10.602,88.065c-7.074,24.118 -18.948,43.688 -35.599,58.706c-16.66,15.021 -39.021,25.939 -67.089,32.77c-28.065,6.817 -63.091,10.237 -105.076,10.237c-42.455,-0 -77.587,-3.187 -105.424,-9.562c-27.847,-6.369 -50.208,-16.948 -67.096,-31.742c-16.884,-14.786 -28.747,-34.355 -35.588,-58.706c-6.847,-24.346 -10.27,-54.269 -10.27,-89.768l-0,-124.931c-0,-34.59 3.535,-63.946 10.608,-88.064c7.074,-24.119 18.944,-43.688 35.593,-58.707c16.663,-15.02 39.023,-25.938 67.097,-32.769c28.063,-6.83 63.095,-10.237 105.08,-10.237Zm317.633,5.461l325.161,-0l-0,79.873l-232.06,-0l-0,134.481l223.162,-0l-0,77.144l-223.162,0l-0,202.066l-93.101,-0l-0,-493.564Zm638.018,-0l145.122,-0l136.229,396.623l136.217,-396.623l142.393,-0l-0,493.564l-90.355,-0l0,-243.712c0,-16.839 0.106,-33.905 0.339,-51.2c0.227,-17.293 0.677,-35.841 1.364,-55.638c0.689,-19.798 1.482,-43.122 2.392,-69.97c-8.661,26.848 -17.794,54.729 -27.376,83.619c-9.581,28.906 -19.391,57.691 -29.434,86.36l-88.301,250.541l-97.219,-0l-86.938,-249.171c-9.121,-25.949 -18.369,-52.564 -27.725,-79.873c-9.348,-27.311 -19.286,-58.026 -29.777,-92.16c0.46,23.209 0.804,44.943 1.025,65.193c0.228,20.259 0.572,40.165 1.028,59.735c0.454,19.569 0.805,39.366 1.026,59.395c0.233,20.018 0.344,41.413 0.344,64.167l0,172.714l-90.354,-0l-0,-493.564Zm934.409,-0l162.246,493.564l-97.213,-0l-35.589,-108.542l-206.741,-0l-35.599,108.542l-97.201,-0l163.61,-493.564l146.487,-0Zm8.9,315.389l-75.297,-245.759l-13.693,-0l-76.673,245.759l165.663,0Zm218.378,-315.389l93.101,-0l0,411.643l256.705,0l0,81.921l-349.806,-0l0,-493.564Zm416.892,-0l239.605,-0c37.419,-0 68.574,3.523 93.446,10.579c24.862,7.052 44.721,19.687 59.546,37.884c14.836,18.211 25.216,42.674 31.153,73.389c5.927,30.722 8.9,69.744 8.9,117.082c-0,51.421 -2.629,93.633 -7.884,126.624c-5.232,33.003 -15.508,58.945 -30.787,77.828c-15.297,18.886 -36.747,31.975 -64.352,39.254c-27.614,7.285 -63.554,10.924 -107.826,10.924l-221.801,-0l-0,-493.564Zm93.106,413.691l141.706,-0c22.815,-0 41.069,-1.593 54.756,-4.778c13.7,-3.191 24.309,-10.691 31.848,-22.531c7.518,-11.83 12.429,-29.358 14.716,-52.566c2.28,-23.208 3.411,-54.835 3.411,-94.882c0,-34.588 -1.249,-62.465 -3.756,-83.631c-2.513,-21.161 -7.878,-37.319 -16.091,-48.47c-8.217,-11.147 -19.74,-18.544 -34.565,-22.182c-14.837,-3.641 -34.572,-5.459 -59.219,-5.459l-132.806,-0l0,334.499Zm533.271,-413.691l0,493.564l-93.097,-0l0,-493.564l93.097,-0Zm364.188,493.564l-141.022,-0l-161.557,-493.564l97.208,-0l134.856,421.88l137.601,-421.88l95.16,-0l-162.246,493.564Zm221.79,-493.564l363.501,-0l0,77.144l-270.394,0l-0,125.608l260.811,0l0,73.038l-260.811,0l-0,139.271l271.77,-0l0,78.503l-364.877,-0l0,-493.564Zm527.804,337.233l0,16.385c0,13.655 1.243,24.917 3.756,33.79c2.514,8.876 7.763,15.928 15.741,21.166c7.99,5.232 19.625,8.873 34.917,10.92c15.285,2.042 35.72,3.067 61.271,3.067c25.555,0 45.639,-0.786 60.237,-2.386c14.604,-1.591 25.666,-4.775 33.208,-9.559c7.528,-4.776 12.312,-11.601 14.369,-20.478c2.059,-8.872 3.085,-20.364 3.085,-34.472c-0,-15.019 -0.805,-26.965 -2.396,-35.843c-1.597,-8.871 -5.25,-15.814 -10.959,-20.817c-5.704,-5.01 -13.915,-8.418 -24.633,-10.236c-10.727,-1.821 -25.219,-3.418 -43.483,-4.784l-73.926,-4.776c-28.752,-1.82 -53.054,-5.011 -72.907,-9.562c-19.846,-4.548 -35.941,-12.055 -48.258,-22.525c-12.324,-10.469 -21.112,-24.695 -26.362,-42.668c-5.242,-17.976 -7.866,-41.529 -7.866,-70.658c-0,-25.938 2.963,-47.782 8.9,-65.531c5.936,-17.749 16.428,-32.091 31.485,-43.011c15.058,-10.92 35.493,-18.771 61.277,-23.552c25.784,-4.778 58.297,-7.164 97.54,-7.164c37.43,-0 68.456,1.704 93.107,5.122c24.64,3.412 44.149,9.892 58.518,19.452c14.383,9.554 24.535,22.754 30.466,39.593c5.937,16.839 8.9,38.456 8.9,64.854l0,7.851c0,2.952 -0.221,6.487 -0.683,10.576l-84.195,-0l0,-12.279c0,-11.839 -1.143,-21.732 -3.423,-29.7c-2.287,-7.963 -7.08,-14.226 -14.377,-18.775c-7.313,-4.551 -17.921,-7.741 -31.836,-9.56c-13.915,-1.82 -32.519,-2.73 -55.788,-2.73c-24.641,-0 -44.044,0.91 -58.192,2.73c-14.144,1.819 -24.979,5.238 -32.519,10.247c-7.518,5.005 -12.318,11.946 -14.371,20.818c-2.047,8.877 -3.079,20.363 -3.079,34.471c0,13.2 1.143,23.897 3.418,32.087c2.28,8.189 6.62,14.57 13.006,19.119c6.397,4.551 15.058,7.729 25.782,9.55c10.731,1.83 24.769,3.417 42.224,4.787l106.334,7.503c23.269,1.818 42.666,5.692 58.302,11.607c15.508,5.919 27.952,14.453 37.418,25.606c9.348,11.145 15.98,24.911 19.851,41.302c3.892,16.379 5.816,35.946 5.816,58.706c-0,29.579 -2.846,54.04 -8.556,73.383c-5.698,19.342 -16.074,34.699 -31.259,46.079c-15.057,11.38 -35.715,19.347 -61.947,23.897c-26.356,4.549 -60.245,6.824 -101.886,6.824c-40.736,-0 -74.163,-1.936 -100.401,-5.798c-26.35,-3.874 -47.235,-10.93 -62.753,-21.167c-15.635,-10.242 -26.476,-24.235 -32.63,-41.985c-6.158,-17.749 -9.237,-40.736 -9.237,-68.955l0,-10.575c0,-3.412 0.221,-7.395 0.675,-11.946l88.319,0Z" style="fill:#fff;fill-rule:nonzero;"/><rect x="149.231" y="148.996" width="780.849" height="778.995" style="fill:#e01b22;"/><path d="M100.832,977.25l877.65,-0l0,-877.5l-877.65,-0l-0,877.5Zm48.399,-828.254l780.848,0l0,778.995l-780.848,0l-0,-778.995Z" style="fill:#fff;"/><path d="M650.176,198.21l0,499.98l-54.32,0l0,-292.332l-160.862,292.332l-60.362,0l275.544,-499.98Zm-277.507,651.278l1.581,0.805c8.117,4.144 16.24,8.289 23.819,8.289c7.563,0 15.684,-4.145 23.807,-8.289c9.018,-4.594 18.039,-9.194 27.599,-9.194c9.565,0 18.587,4.6 27.596,9.194c8.119,4.144 16.24,8.289 23.821,8.289c7.567,0 15.69,-4.145 23.813,-8.289c9.01,-4.594 18.031,-9.194 27.592,-9.194c9.566,0 18.587,4.6 27.597,9.194c8.117,4.144 16.24,8.289 23.813,8.289c7.575,0 15.698,-4.145 23.821,-8.289c9.009,-4.594 18.031,-9.194 27.596,-9.194c9.566,0 18.587,4.6 27.593,9.194c8.117,4.144 16.24,8.289 23.813,8.289c7.569,0 15.702,-4.145 23.819,-8.289c1.536,-0.783 3.079,-1.57 4.617,-2.331l0,21.2l-0.838,0.428c-9.011,4.6 -18.033,9.194 -27.598,9.194c-9.56,-0 -18.581,-4.594 -27.587,-9.194c-8.123,-4.145 -16.256,-8.279 -23.819,-8.279c-7.573,-0 -15.701,4.134 -23.819,8.279c-9.011,4.6 -18.033,9.194 -27.598,9.194c-9.566,-0 -18.581,-4.594 -27.591,-9.194c-8.123,-4.145 -16.246,-8.279 -23.819,-8.279c-7.574,-0 -15.691,4.134 -23.814,8.279c-9.01,4.6 -18.031,9.194 -27.591,9.194c-9.566,-0 -18.587,-4.594 -27.604,-9.194c-8.117,-4.145 -16.246,-8.279 -23.813,-8.279c-7.573,-0 -15.696,4.134 -23.813,8.279c-9.012,4.6 -18.033,9.194 -27.593,9.194c-8.794,-0 -17.123,-3.88 -25.4,-8.068l-0,-21.228Zm-0,-41.34l1.581,0.81c8.117,4.138 16.24,8.283 23.819,8.283c7.563,0 15.684,-4.145 23.807,-8.283c9.018,-4.6 18.039,-9.2 27.599,-9.2c9.565,0 18.587,4.6 27.596,9.2c8.119,4.138 16.24,8.283 23.821,8.283c7.567,0 15.69,-4.145 23.813,-8.283c9.01,-4.6 18.031,-9.2 27.592,-9.2c9.566,0 18.587,4.6 27.597,9.2c8.117,4.138 16.24,8.283 23.813,8.283c7.575,0 15.698,-4.145 23.821,-8.283c9.009,-4.6 18.031,-9.2 27.596,-9.2c9.566,0 18.587,4.6 27.593,9.2c8.117,4.138 16.24,8.283 23.813,8.283c7.569,0 15.702,-4.145 23.819,-8.283c1.536,-0.783 3.079,-1.572 4.617,-2.331l0,21.194l-0.838,0.428c-9.011,4.6 -18.033,9.194 -27.598,9.194c-9.56,-0 -18.581,-4.594 -27.587,-9.194c-8.123,-4.139 -16.256,-8.279 -23.819,-8.279c-7.573,-0 -15.701,4.14 -23.819,8.279c-9.011,4.6 -18.033,9.194 -27.598,9.194c-9.566,-0 -18.581,-4.594 -27.591,-9.194c-8.123,-4.139 -16.246,-8.279 -23.819,-8.279c-7.574,-0 -15.691,4.14 -23.814,8.279c-9.01,4.6 -18.031,9.194 -27.591,9.194c-9.566,-0 -18.587,-4.594 -27.604,-9.194c-8.117,-4.139 -16.246,-8.279 -23.813,-8.279c-7.573,-0 -15.696,4.14 -23.813,8.279c-9.012,4.6 -18.033,9.194 -27.593,9.194c-8.794,-0 -17.123,-3.879 -25.4,-8.068l-0,-21.227Zm-30.639,-88.697l395.255,-0l0,58.27l-182.187,-0l0,-0.018l-182.241,0l-30.827,-58.252Z" style="fill:#fff;"/></g></svg>