<?xml version="1.0" encoding="UTF-8" standalone="no"?><!DOCTYPE svg PUBLIC "-//W3C//DTD SVG 1.1//EN" "http://www.w3.org/Graphics/SVG/1.1/DTD/svg11.dtd"><svg width="100%" height="100%" viewBox="0 0 8334 1071" version="1.1" xmlns="http://www.w3.org/2000/svg" xmlns:xlink="http://www.w3.org/1999/xlink" xml:space="preserve" xmlns:serif="http://www.serif.com/" style="fill-rule:evenodd;clip-rule:evenodd;stroke-linejoin:round;stroke-miterlimit:2;"><rect id="BML-Logo_Full_2000x257" serif:id="BML Logo_Full_2000x257" x="0" y="0" width="8333.33" height="1070.83" style="fill:none;"/><g><path d="M1428.78,288.922c31.927,-0 58.397,2.506 79.385,7.504c20.988,5.009 37.419,12.746 49.278,23.201c11.854,10.467 20.184,23.891 24.982,40.271c4.782,16.38 7.177,36.165 7.177,59.372c0,16.835 -1.479,31.278 -4.442,43.343c-2.968,12.048 -7.643,22.292 -14.034,30.706c-6.389,8.42 -14.593,15.237 -24.632,20.474c-10.046,5.23 -21.904,9.435 -35.593,12.625c31.476,5.007 54.302,16.269 68.446,33.786c14.134,17.511 21.205,44.017 21.205,79.502c0,27.301 -2.279,50.158 -6.839,68.591c-4.565,18.425 -13.456,33.097 -26.69,44.017c-13.23,10.917 -31.596,18.654 -55.091,23.204c-23.503,4.547 -53.96,6.827 -91.366,6.827l-218.316,0l-0,-493.423l226.53,-0Zm10.949,205.424c10.95,0 20.186,-0.794 27.723,-2.391c7.516,-1.591 13.684,-4.892 18.464,-9.895c4.798,-5.01 8.332,-12.17 10.618,-21.505c2.28,-9.319 3.422,-21.721 3.422,-37.191c0,-12.287 -1.369,-22.409 -4.111,-30.369c-2.734,-7.964 -7.299,-14.105 -13.684,-18.421c-6.389,-4.327 -14.942,-7.287 -25.665,-8.874c-10.727,-1.593 -24.066,-2.397 -40.03,-2.397l-123.183,-0l0,131.043l146.446,0Zm-8.896,212.246c16.883,0 30.461,-0.804 40.719,-2.389c10.267,-1.593 18.137,-4.888 23.612,-9.895c5.475,-5.01 9.119,-12.404 10.948,-22.188c1.82,-9.778 2.746,-22.858 2.746,-39.232c-0,-12.746 -1.153,-23.44 -3.427,-32.077c-2.279,-8.647 -6.396,-15.703 -12.32,-21.161c-5.934,-5.457 -14.028,-9.436 -24.301,-11.942c-10.255,-2.503 -23.379,-3.755 -39.353,-3.755l-136.174,-0l0,142.639l137.55,0Zm521.48,-417.67l162.193,493.423l-97.175,0l-35.588,-108.511l-206.677,-0l-35.584,108.511l-97.184,0l163.564,-493.423l146.451,-0Zm8.901,315.299l-75.275,-245.689l-13.694,0l-76.645,245.689l165.614,0Zm216.946,-315.299l139.607,-0l91.023,172.664c14.144,26.841 26.912,50.952 38.328,72.336c11.41,21.394 22.004,41.523 31.823,60.404c9.799,18.877 19.389,37.192 28.737,54.936c9.351,17.745 18.826,36.399 28.405,55.96c-0,-15.014 -0.233,-32.414 -0.683,-52.204c-0.46,-19.791 -0.805,-40.609 -1.032,-62.447c-0.232,-21.838 -0.453,-44.129 -0.686,-66.883c-0.229,-22.753 -0.345,-44.358 -0.345,-64.836l0,-169.93l90.341,-0l-0,493.423l-137.556,0l-86.918,-158.333c-13.678,-25.021 -26.464,-48.8 -38.322,-71.32c-11.854,-22.519 -23.264,-44.136 -34.212,-64.836c-10.956,-20.695 -21.45,-40.946 -31.488,-60.737c-10.035,-19.797 -19.848,-39.693 -29.426,-59.717c-0,15.924 0.227,34.578 0.68,55.962c0.456,21.382 0.795,43.225 1.038,65.519c0.229,22.297 0.45,44.018 0.677,65.18c0.232,21.149 0.344,39.92 0.344,56.293l0,171.989l-90.335,0l0,-493.423Zm553.646,-0l93.076,-0l-0,199.961l31.476,-0l164.933,-199.961l112.241,-0l-200.528,235.455l223.113,257.968l-117.708,0l-183.409,-216.34l-30.118,0l-0,216.34l-93.076,0l-0,-493.423Zm906.787,73.704c-27.38,-0 -49.393,1.365 -66.051,4.093c-16.647,2.73 -29.303,8.305 -37.974,16.725c-8.68,8.414 -14.376,20.474 -17.116,36.165c-2.735,15.703 -4.105,36.514 -4.105,62.451l0,107.147c0,25.475 1.37,46.066 4.105,61.764c2.74,15.691 8.563,27.872 17.455,36.507c8.897,8.649 21.556,14.334 37.979,17.064c16.429,2.733 38.327,4.093 65.707,4.093c27.367,0 49.383,-1.36 66.041,-4.093c16.644,-2.73 29.315,-8.299 37.983,-16.719c8.665,-8.414 14.373,-20.474 17.106,-36.177c2.736,-15.692 4.1,-36.508 4.1,-62.439l-0,-107.147c-0,-25.482 -1.364,-46.067 -4.1,-61.764c-2.733,-15.703 -8.553,-27.755 -17.454,-36.175c-8.898,-8.414 -21.556,-14.107 -37.979,-17.063c-16.43,-2.951 -38.33,-4.432 -65.697,-4.432Zm-0,-79.164c42.432,0 77.555,3.18 105.384,9.553c27.833,6.373 50.191,16.95 67.065,31.737c16.885,14.784 28.749,34.348 35.594,58.692c6.838,24.338 10.261,54.253 10.261,89.742l-0,124.895c-0,34.58 -3.538,63.922 -10.6,88.039c-7.072,24.112 -18.942,43.676 -35.588,58.69c-16.656,15.016 -39.01,25.931 -67.071,32.76c-28.056,6.816 -63.072,10.234 -105.045,10.234c-42.443,0 -77.565,-3.185 -105.394,-9.558c-27.839,-6.368 -50.194,-16.944 -67.077,-31.734c-16.879,-14.781 -28.739,-34.345 -35.578,-58.689c-6.845,-24.339 -10.267,-54.254 -10.267,-89.742l-0,-124.895c-0,-34.581 3.534,-63.928 10.606,-88.04c7.071,-24.111 18.937,-43.675 35.582,-58.689c16.658,-15.017 39.012,-25.932 67.078,-32.761c28.054,-6.827 63.077,-10.234 105.05,-10.234Zm317.542,5.46l325.068,-0l-0,79.85l-231.994,-0l0,134.442l223.098,0l0,77.123l-223.098,-0l0,202.008l-93.074,0l-0,-493.423Zm637.836,-0l145.081,-0l136.19,396.51l136.178,-396.51l142.352,-0l-0,493.423l-90.329,0l0,-243.642c0,-16.835 0.106,-33.896 0.339,-51.186c0.227,-17.288 0.677,-35.831 1.363,-55.621c0.689,-19.793 1.482,-43.11 2.392,-69.951c-8.659,26.841 -17.789,54.713 -27.368,83.595c-9.578,28.898 -19.386,57.674 -29.426,86.335l-88.276,250.47l-97.191,0l-86.913,-249.1c-9.118,-25.941 -18.364,-52.549 -27.717,-79.85c-9.346,-27.303 -19.281,-58.009 -29.769,-92.133c0.46,23.201 0.804,44.929 1.025,65.174c0.227,20.253 0.572,40.153 1.028,59.717c0.454,19.564 0.804,39.355 1.025,59.379c0.233,20.012 0.344,41.401 0.344,64.149l0,172.664l-90.328,0l-0,-493.423Zm934.143,-0l162.199,493.423l-97.185,0l-35.579,-108.511l-206.683,-0l-35.587,108.511l-97.174,0l163.563,-493.423l146.446,-0Zm8.897,315.299l-75.275,-245.689l-13.69,0l-76.651,245.689l165.616,0Zm218.316,-315.299l93.074,-0l0,411.526l256.632,-0l-0,81.897l-349.706,0l-0,-493.423Zm416.772,-0l239.538,-0c37.407,-0 68.553,3.522 93.418,10.576c24.855,7.05 44.709,19.681 59.529,37.873c14.833,18.206 25.209,42.662 31.144,73.368c5.925,30.714 8.898,69.724 8.898,117.049c-0,51.406 -2.628,93.606 -7.882,126.588c-5.231,32.993 -15.504,58.928 -30.778,77.805c-15.292,18.881 -36.737,31.966 -64.333,39.243c-27.607,7.283 -63.537,10.921 -107.795,10.921l-221.739,0l0,-493.423Zm93.08,413.573l141.665,-0c22.809,-0 41.058,-1.593 54.741,-4.777c13.696,-3.189 24.302,-10.688 31.839,-22.524c7.516,-11.827 12.426,-29.35 14.711,-52.552c2.28,-23.201 3.411,-54.819 3.411,-94.854c-0,-34.579 -1.249,-62.447 -3.755,-83.608c-2.513,-21.154 -7.876,-37.308 -16.087,-48.455c-8.215,-11.144 -19.734,-18.539 -34.555,-22.177c-14.832,-3.639 -34.562,-5.457 -59.202,-5.457l-132.768,-0l0,334.404Zm533.119,-413.573l0,493.423l-93.07,0l-0,-493.423l93.07,-0Zm364.084,493.423l-140.982,0l-161.51,-493.423l97.179,-0l134.818,421.76l137.562,-421.76l95.133,-0l-162.2,493.423Zm221.727,-493.423l363.397,-0l0,77.122l-270.317,0l-0,125.573l260.737,-0l-0,73.017l-260.737,-0l-0,139.23l271.693,0l-0,78.481l-364.773,0l-0,-493.423Zm527.653,337.137l0,16.38c0,13.651 1.243,24.91 3.755,33.78c2.513,8.874 7.761,15.924 15.737,21.161c7.987,5.23 19.618,8.87 34.907,10.917c15.28,2.04 35.709,3.066 61.253,3.066c25.547,-0 45.626,-0.787 60.22,-2.385c14.599,-1.591 25.659,-4.775 33.198,-9.557c7.526,-4.775 12.308,-11.598 14.365,-20.472c2.059,-8.87 3.084,-20.359 3.084,-34.463c-0,-15.014 -0.804,-26.957 -2.395,-35.833c-1.597,-8.868 -5.248,-15.808 -10.956,-20.81c-5.702,-5.009 -13.911,-8.416 -24.626,-10.234c-10.723,-1.82 -25.211,-3.416 -43.47,-4.782l-73.906,-4.775c-28.743,-1.82 -53.038,-5.009 -72.886,-9.559c-19.84,-4.547 -35.93,-12.051 -48.244,-22.518c-12.32,-10.467 -21.106,-24.689 -26.354,-42.656c-5.24,-17.971 -7.864,-41.517 -7.864,-70.638c-0,-25.931 2.962,-47.769 8.897,-65.513c5.935,-17.744 16.423,-32.081 31.477,-42.998c15.053,-10.917 35.482,-18.766 61.259,-23.546c25.776,-4.776 58.28,-7.162 97.512,-7.162c37.419,0 68.436,1.705 93.08,5.121c24.634,3.411 44.137,9.89 58.502,19.447c14.378,9.551 24.528,22.747 30.457,39.581c5.935,16.834 8.898,38.445 8.898,64.836l-0,7.849c-0,2.951 -0.222,6.485 -0.683,10.572l-84.171,0l-0,-12.275c-0,-11.836 -1.143,-21.726 -3.423,-29.692c-2.285,-7.96 -7.077,-14.222 -14.372,-18.769c-7.311,-4.55 -17.916,-7.739 -31.827,-9.557c-13.911,-1.82 -32.51,-2.73 -55.772,-2.73c-24.634,0 -44.032,0.91 -58.175,2.73c-14.14,1.818 -24.973,5.236 -32.51,10.244c-7.516,5.003 -12.314,11.942 -14.367,20.812c-2.047,8.874 -3.078,20.356 -3.078,34.461c0,13.196 1.143,23.89 3.417,32.077c2.279,8.187 6.617,14.567 13.002,19.114c6.395,4.55 15.054,7.727 25.775,9.547c10.727,1.83 24.761,3.417 42.212,4.787l106.304,7.5c23.262,1.818 42.654,5.69 58.284,11.604c15.504,5.917 27.945,14.448 37.408,25.598c9.346,11.142 15.975,24.904 19.846,41.29c3.89,16.374 5.813,35.936 5.813,58.69c0,29.571 -2.845,54.025 -8.553,73.361c-5.696,19.337 -16.069,34.69 -31.25,46.067c-15.053,11.377 -35.705,19.341 -61.93,23.89c-26.348,4.548 -60.227,6.822 -101.856,6.822c-40.724,-0 -74.142,-1.936 -100.373,-5.796c-26.342,-3.873 -47.221,-10.927 -62.734,-21.161c-15.631,-10.24 -26.47,-24.229 -32.622,-41.973c-6.156,-17.744 -9.234,-40.724 -9.234,-68.935l0,-10.573c0,-3.41 0.221,-7.392 0.675,-11.942l88.294,0Z" style="fill:#e01b22;fill-rule:nonzero;"/><g><rect x="101.992" y="96.717" width="877.4" height="877.4" style="fill:#e41b23;"/><path d="M658.723,172.015l-0,533.935l-58.013,0l-0,-312.179l-171.791,312.179l-64.459,0l294.263,-533.935Zm-296.36,695.516l1.689,0.868c8.671,4.416 17.343,8.841 25.437,8.841c8.083,-0 16.754,-4.425 25.425,-8.841c9.622,-4.907 19.266,-9.826 29.476,-9.826c10.21,0 19.843,4.919 29.465,9.826c8.671,4.416 17.343,8.841 25.437,8.841c8.09,-0 16.761,-4.425 25.432,-8.841c9.622,-4.907 19.255,-9.826 29.469,-9.826c10.218,0 19.851,4.919 29.476,9.826c8.671,4.416 17.339,8.841 25.433,8.841c8.083,-0 16.754,-4.425 25.437,-8.841c9.621,-4.907 19.254,-9.826 29.464,-9.826c10.21,0 19.855,4.919 29.465,9.826c8.671,4.416 17.354,8.841 25.437,8.841c8.083,-0 16.765,-4.425 25.436,-8.841c1.645,-0.845 3.293,-1.679 4.926,-2.49l0,22.631l-0.886,0.46c-9.622,4.907 -19.255,9.818 -29.476,9.818c-10.21,-0 -19.843,-4.911 -29.465,-9.818c-8.671,-4.424 -17.354,-8.841 -25.437,-8.841c-8.094,0 -16.765,4.417 -25.432,8.841c-9.626,4.907 -19.259,9.818 -29.469,9.818c-10.221,-0 -19.854,-4.911 -29.476,-9.818c-8.671,-4.424 -17.343,-8.841 -25.433,-8.841c-8.083,0 -16.754,4.417 -25.425,8.841c-9.633,4.907 -19.266,9.818 -29.476,9.818c-10.21,-0 -19.843,-4.911 -29.476,-9.818c-8.672,-4.424 -17.343,-8.841 -25.426,-8.841c-8.094,0 -16.765,4.417 -25.436,8.841c-9.622,4.907 -19.255,9.818 -29.465,9.818c-9.388,-0 -18.282,-4.138 -27.126,-8.619l-0,-22.668Zm-0,-44.144l1.689,0.856c8.671,4.424 17.343,8.852 25.437,8.852c8.083,0 16.754,-4.428 25.425,-8.852c9.622,-4.907 19.266,-9.814 29.476,-9.814c10.21,0 19.843,4.907 29.465,9.814c8.671,4.424 17.343,8.852 25.437,8.852c8.09,0 16.761,-4.428 25.432,-8.852c9.622,-4.907 19.255,-9.814 29.469,-9.814c10.218,0 19.851,4.907 29.476,9.814c8.671,4.424 17.339,8.852 25.433,8.852c8.083,0 16.754,-4.428 25.437,-8.852c9.621,-4.907 19.254,-9.814 29.464,-9.814c10.21,0 19.855,4.907 29.465,9.814c8.671,4.424 17.354,8.852 25.437,8.852c8.083,0 16.765,-4.428 25.436,-8.852c1.645,-0.833 3.293,-1.667 4.926,-2.482l0,22.634l-0.886,0.461c-9.622,4.907 -19.255,9.814 -29.476,9.814c-10.21,-0 -19.843,-4.907 -29.465,-9.814c-8.671,-4.425 -17.354,-8.841 -25.437,-8.841c-8.094,-0 -16.765,4.416 -25.432,8.841c-9.626,4.907 -19.259,9.814 -29.469,9.814c-10.221,-0 -19.854,-4.907 -29.476,-9.814c-8.671,-4.425 -17.343,-8.841 -25.433,-8.841c-8.083,-0 -16.754,4.416 -25.425,8.841c-9.633,4.907 -19.266,9.814 -29.476,9.814c-10.21,-0 -19.843,-4.907 -29.476,-9.814c-8.672,-4.425 -17.343,-8.841 -25.426,-8.841c-8.094,-0 -16.765,4.416 -25.436,8.841c-9.622,4.907 -19.255,9.814 -29.465,9.814c-9.388,-0 -18.282,-4.138 -27.126,-8.615l-0,-22.668Zm-32.728,-94.727l422.114,-0l0,62.237l-194.565,0l0,-0.022l-194.618,-0l-32.931,-62.215Z" style="fill:#fff;"/></g></g></svg>